<?xml version="1.0" encoding="utf-8"?>
<!-- Generator: Adobe Illustrator 20.0.0, SVG Export Plug-In . SVG Version: 6.00 Build 0)  -->
<svg version="1.1" id="Layer_1" xmlns="http://www.w3.org/2000/svg" xmlns:xlink="http://www.w3.org/1999/xlink" x="0px" y="0px"
	 viewBox="0 0 864.2 102" style="enable-background:new 0 0 864.2 102;" xml:space="preserve">
<style type="text/css">
	.st0{fill:#737372;}
	.st1{fill:#3B3736;}
	.st2{fill:#737371;}
</style>
<rect y="0" class="st0" width="140.7" height="102"/>
<rect x="140.7" y="0" class="st1" width="337.3" height="102"/>
<rect x="478" y="0" class="st0" width="386.2" height="102"/>
<g>
	<path class="st1" d="M30.3,35v14.5l-5.2-2.1c-1.2-0.4-2.3-0.6-3.4-0.6c-1.3,0-2.5,0.3-3.6,0.8c-1.1,0.5-2.1,1.2-3,2.1
		c-0.9,0.9-1.5,1.9-2,3c-0.5,1.2-0.7,2.4-0.7,3.8c0,1.3,0.2,2.5,0.7,3.7c0.5,1.2,1.2,2.2,2,3.1c0.9,0.9,1.9,1.6,3,2.1
		c1.1,0.5,2.3,0.7,3.6,0.7c1.8,0,3.5-0.5,5-1.5c1.5-1,2.7-2.3,3.5-4l6.8,3.4c-1.4,3-3.5,5.3-6.1,7.1c-2.9,1.9-6,2.8-9.2,2.8
		c-2.3,0-4.4-0.4-6.5-1.3c-2-0.9-3.9-2.1-5.5-3.8c-1.6-1.6-2.8-3.5-3.7-5.6c-0.9-2.1-1.3-4.3-1.3-6.6c0-2.3,0.4-4.5,1.3-6.7
		c0.9-2.1,2.1-4,3.7-5.6c1.6-1.6,3.4-2.9,5.5-3.8c2-0.9,4.2-1.3,6.5-1.3c0.5,0,0.8,0,1,0.1V35H30.3z M20.8,27.3c0-1.6,0.5-2.9,1.6-4
		c1.1-1.1,2.4-1.6,3.9-1.6c1.6,0,2.9,0.5,4,1.6c1.1,1.1,1.6,2.4,1.6,4c0,1.6-0.5,2.9-1.6,4c-1.1,1.1-2.4,1.6-4,1.6
		c-1.5,0-2.8-0.5-3.9-1.6C21.4,30.2,20.8,28.8,20.8,27.3z"/>
	<path class="st1" d="M88.1,30.6H72.6v42.2H65V30.6H49.5v-7.8h38.6V30.6z"/>
	<path class="st1" d="M110.8,30.6v12.3h21v7.8h-21v14.4h21.7v7.8h-29.3v-50h29.3v7.8H110.8z"/>
	<path class="st2" d="M167,74h-1.1c-1.7,0-3.5-0.3-5.2-0.7c-1.7-0.5-3.4-1.1-5-2c-1.6-0.9-3.1-2-4.4-3.2c-1.3-1.2-2.3-2.5-3-3.9
		l6.8-3.6c0.3,0.6,0.9,1.3,1.6,2c0.7,0.7,1.6,1.3,2.5,1.8c1,0.5,2,1,3.2,1.3c1.2,0.3,2.4,0.5,3.6,0.5h0.1h0.1c1,0.1,2.2,0,3.6-0.3
		c1.4-0.3,2.8-0.8,4.1-1.6c2.8-1.6,4.3-3.7,4.4-6.4c0.1-1.7-0.3-3.1-1.3-4.1c-0.9-1-2.3-1.8-4.1-2.4c-1.8-0.6-3.9-0.9-6.1-0.9
		c-0.7,0-1.6,0-2.8-0.1c-1.2-0.1-2.5-0.3-3.8-0.6c-3.4-0.9-6-2.3-8-4.3c-1.1-1.2-1.9-2.7-2.5-4.2c-0.5-1.6-0.8-3.3-0.7-5.1
		c0.2-3.8,1.5-6.9,3.9-9.3c1-1.1,2.2-2,3.5-2.7c1.4-0.7,2.8-1.3,4.4-1.7c2-0.5,4-0.7,6.1-0.5c2.1,0.1,4.1,0.5,6.1,1.1
		c2.2,0.7,4,1.7,5.7,2.9c1.6,1.2,2.9,2.6,3.8,4.2l-6.6,3.8c-0.4-0.7-1.1-1.4-2-2c-0.9-0.6-1.9-1.1-3.2-1.5c-1.3-0.4-2.7-0.7-4.1-0.7
		c-1.4-0.1-2.8,0.1-4.1,0.4c-3.8,0.9-5.9,3.1-6,6.6c-0.1,1,0,1.8,0.3,2.3c0.3,0.5,0.5,1,0.8,1.3c1,1,2.3,1.7,4.1,2.1
		c1.7,0.4,3.4,0.6,5,0.6c3.4,0,6.5,0.5,9.2,1.5c2.7,1,4.9,2.4,6.6,4.3c2.5,2.8,3.6,6.1,3.3,10.1c-0.3,2.9-1.2,5.5-2.9,7.7
		c-1.4,1.9-3.2,3.6-5.4,4.8c-1.6,0.9-3.3,1.6-5.2,2.1C170.6,73.7,168.8,74,167,74z"/>
	<path class="st2" d="M200,72.9v-50h7.6v50H200z"/>
	<path class="st2" d="M234,30.6v12.3h21v7.8h-21v14.4h21.7v7.8h-29.3v-50h29.3v7.8H234z"/>
	<path class="st2" d="M281.5,38.9v33.9h-7.6V20.5l36.7,36.5V22.9h7.6v52.6L281.5,38.9z"/>
	<path class="st2" d="M372,30.6h-15.5v42.2h-7.6V30.6h-15.5v-7.8H372V30.6z"/>
	<path class="st2" d="M394.8,30.6v12.3h21v7.8h-21v14.4h21.7v7.8h-29.3v-50h29.3v7.8H394.8z"/>
	<path class="st2" d="M451,74h-1.1c-1.7,0-3.5-0.3-5.2-0.7c-1.7-0.5-3.4-1.1-5-2c-1.6-0.9-3.1-2-4.4-3.2c-1.3-1.2-2.3-2.5-3-3.9
		l6.8-3.6c0.3,0.6,0.9,1.3,1.6,2c0.7,0.7,1.6,1.3,2.5,1.8c1,0.5,2,1,3.2,1.3c1.2,0.3,2.4,0.5,3.6,0.5h0.1h0.1c1,0.1,2.2,0,3.6-0.3
		c1.4-0.3,2.8-0.8,4.1-1.6c2.8-1.6,4.3-3.7,4.4-6.4c0.1-1.7-0.3-3.1-1.3-4.1c-0.9-1-2.3-1.8-4.1-2.4c-1.8-0.6-3.9-0.9-6.1-0.9
		c-0.7,0-1.6,0-2.8-0.1c-1.2-0.1-2.5-0.3-3.8-0.6c-3.4-0.9-6-2.3-8-4.3c-1.1-1.2-1.9-2.7-2.5-4.2c-0.5-1.6-0.8-3.3-0.7-5.1
		c0.2-3.8,1.5-6.9,3.9-9.3c1-1.1,2.2-2,3.5-2.7c1.4-0.7,2.8-1.3,4.4-1.7c2-0.5,4-0.7,6.1-0.5c2.1,0.1,4.1,0.5,6.1,1.1
		c2.2,0.7,4,1.7,5.7,2.9c1.6,1.2,2.9,2.6,3.8,4.2l-6.6,3.8c-0.4-0.7-1.1-1.4-2-2c-0.9-0.6-1.9-1.1-3.2-1.5c-1.3-0.4-2.7-0.7-4.1-0.7
		c-1.4-0.1-2.8,0.1-4.1,0.4c-3.8,0.9-5.9,3.1-6,6.6c-0.1,1,0,1.8,0.3,2.3c0.3,0.5,0.5,1,0.8,1.3c1,1,2.3,1.7,4.1,2.1
		c1.7,0.4,3.4,0.6,5,0.6c3.4,0,6.5,0.5,9.2,1.5c2.7,1,4.9,2.4,6.6,4.3c2.5,2.8,3.6,6.1,3.3,10.1c-0.3,2.9-1.2,5.5-2.9,7.7
		c-1.4,1.9-3.2,3.6-5.4,4.8c-1.6,0.9-3.3,1.6-5.2,2.1C454.6,73.7,452.7,74,451,74z"/>
	<path class="st1" d="M503.7,74h-1.1c-1.7,0-3.5-0.3-5.2-0.7c-1.7-0.5-3.4-1.1-5-2c-1.6-0.9-3.1-2-4.4-3.2c-1.3-1.2-2.3-2.5-3-3.9
		l6.8-3.6c0.3,0.6,0.9,1.3,1.6,2c0.7,0.7,1.6,1.3,2.5,1.8c1,0.5,2,1,3.2,1.3c1.2,0.3,2.4,0.5,3.6,0.5h0.1h0.1c1,0.1,2.2,0,3.6-0.3
		c1.4-0.3,2.8-0.8,4.1-1.6c2.8-1.6,4.3-3.7,4.4-6.4c0.1-1.7-0.3-3.1-1.3-4.1c-0.9-1-2.3-1.8-4.1-2.4c-1.8-0.6-3.9-0.9-6.1-0.9
		c-0.7,0-1.6,0-2.8-0.1c-1.2-0.1-2.5-0.3-3.8-0.6c-3.4-0.9-6-2.3-8-4.3c-1.1-1.2-1.9-2.7-2.5-4.2c-0.5-1.6-0.8-3.3-0.7-5.1
		c0.2-3.8,1.5-6.9,3.9-9.3c1-1.1,2.2-2,3.5-2.7c1.4-0.7,2.8-1.3,4.4-1.7c2-0.5,4-0.7,6.1-0.5c2.1,0.1,4.1,0.5,6.1,1.1
		c2.2,0.7,4,1.7,5.7,2.9c1.6,1.2,2.9,2.6,3.8,4.2l-6.6,3.8c-0.4-0.7-1.1-1.4-2-2c-0.9-0.6-1.9-1.1-3.2-1.5c-1.3-0.4-2.7-0.7-4.1-0.7
		c-1.4-0.1-2.8,0.1-4.1,0.4c-3.8,0.9-5.9,3.1-6,6.6c-0.1,1,0,1.8,0.3,2.3c0.3,0.5,0.5,1,0.8,1.3c1,1,2.3,1.7,4.1,2.1
		c1.7,0.4,3.4,0.6,5,0.6c3.4,0,6.5,0.5,9.2,1.5c2.7,1,4.9,2.4,6.6,4.3c2.5,2.8,3.6,6.1,3.3,10.1c-0.3,2.9-1.2,5.5-2.9,7.7
		c-1.4,1.9-3.2,3.6-5.4,4.8c-1.6,0.9-3.3,1.6-5.2,2.1C507.3,73.7,505.5,74,503.7,74z"/>
	<path class="st1" d="M547,30.6v12.3h21v7.8h-21v14.4h21.7v7.8h-29.3v-50h29.3v7.8H547z"/>
	<path class="st1" d="M609.1,74.1c-3.4,0-6.7-0.7-9.9-2.1c-3.1-1.3-5.9-3.2-8.2-5.6c-2.4-2.5-4.2-5.2-5.5-8.3c-1.4-3.3-2-6.7-2-10.2
		c0-3.5,0.7-6.9,2-10.2c0.6-1.6,1.4-3,2.3-4.4c0.9-1.4,2-2.7,3.2-3.9c2.3-2.4,5-4.2,8.2-5.6c3.1-1.3,6.4-2,9.9-2
		c4.5,0,8.6,1.1,12.5,3.2c1.9,1,3.6,2.3,5.1,3.8c1.5,1.5,2.9,3.1,4,4.9l-6.4,4.3c-1.7-2.7-3.9-4.7-6.5-6.2c-2.7-1.5-5.6-2.2-8.7-2.2
		c-2.5,0-4.8,0.5-7,1.5c-2.2,1-4.1,2.3-5.7,3.9c-1.6,1.7-2.9,3.6-3.9,5.9c-1,2.2-1.4,4.6-1.4,7.2c0,2.5,0.5,4.9,1.4,7.2
		c1,2.2,2.2,4.2,3.9,5.9c1.6,1.7,3.5,3,5.7,4c2.2,1,4.5,1.5,7,1.5c1.8,0,3.6-0.3,5.3-0.8c1.7-0.5,3.3-1.3,4.7-2.2
		c1.4-1,2.7-2.1,3.8-3.4c1.1-1.3,2-2.8,2.8-4.4h-18.1v-7.8h27.4c0,0.4,0,0.8,0,1.4c0,0.5-0.1,1-0.2,1.5c-0.1,0.6-0.2,1.1-0.3,1.7
		c-0.5,3-1.4,5.9-2.9,8.5c-1.5,2.7-3.4,5-5.7,7c-2.4,2-5,3.6-7.8,4.7C615.1,73.6,612.2,74.1,609.1,74.1z"/>
	<path class="st1" d="M672.9,73.8c-2.9,0-5.4-0.3-7.5-0.9c-2.1-0.6-4-1.4-5.5-2.4c-1.5-1-2.8-2.1-3.8-3.3c-1-1.2-1.8-2.4-2.4-3.6
		c-0.7-1.3-1.2-2.6-1.6-3.9c-0.4-1.3-0.7-2.6-0.8-3.7c-0.2-1.2-0.3-2.2-0.3-3.2c0-0.9,0-1.7,0-2.2V22.9h7.6v27.7c0,0.4,0,1,0,1.7
		c0,0.7,0.1,1.5,0.2,2.3c0.1,0.8,0.3,1.7,0.5,2.7c0.3,0.9,0.6,1.8,1.1,2.7c2.1,4.1,6.3,6.1,12.5,6.1c6.2,0,10.4-2,12.5-6.1
		c0.5-0.9,0.8-1.8,1.1-2.7c0.3-0.9,0.4-1.8,0.5-2.7c0.1-0.8,0.2-1.6,0.2-2.3c0-0.7,0-1.3,0-1.7V22.9h7.6v27.7c0,0.5,0,1.3,0,2.2
		c0,0.9-0.1,2-0.3,3.2c-0.2,1.2-0.4,2.4-0.8,3.7c-0.4,1.3-0.9,2.6-1.6,3.9c-0.6,1.2-1.4,2.4-2.4,3.6c-1,1.2-2.3,2.3-3.8,3.3
		c-1.5,1-3.3,1.8-5.5,2.4C678.2,73.5,675.7,73.8,672.9,73.8z"/>
	<path class="st1" d="M743.1,74.5l-14-17.1h-8v15.5h-7.6v-50h16.2c5.4,0,9.8,1.3,13.2,4c1.9,1.5,3.3,3.3,4.3,5.4
		c1,2.1,1.4,4.5,1.4,7.1c0,2.5-0.4,4.9-1.3,7.1c-0.9,2.2-2.1,4.1-3.7,5.7c-1.7,1.7-3.6,2.9-5.8,3.7l11.1,13.5L743.1,74.5z
		 M721.1,49.6h8.6c1.8,0.1,3.4-0.1,4.8-0.7c1.5-0.5,2.7-1.3,3.7-2.3c1.8-1.9,2.7-4.3,2.7-7.2c0-2.8-0.9-5-2.8-6.5
		c-1-0.7-2.2-1.3-3.6-1.7c-1.4-0.4-3.1-0.6-4.9-0.6h-8.6V49.6z"/>
	<path class="st1" d="M787.5,74.1c-3.5,0-6.8-0.7-10-2.1c-3-1.3-5.8-3.2-8.2-5.6c-2.4-2.5-4.2-5.2-5.5-8.3c-1.4-3.3-2-6.7-2-10.2
		c0-3.5,0.7-6.9,2-10.2c1.3-3.1,3.1-5.9,5.5-8.3c2.4-2.5,5.1-4.3,8.2-5.6c3.2-1.4,6.5-2.1,10-2.1c3.5,0,6.8,0.7,10,2.1
		c3,1.3,5.8,3.2,8.2,5.6c2.4,2.5,4.2,5.2,5.5,8.3c1.4,3.3,2,6.7,2,10.2c0,3.5-0.7,6.9-2,10.2c-1.3,3.1-3.1,5.9-5.5,8.3
		c-2.4,2.5-5.1,4.3-8.2,5.6C794.3,73.4,791,74.1,787.5,74.1z M787.5,29.3c-2.5,0-4.8,0.5-7,1.5c-2.2,1-4.1,2.3-5.8,4
		c-1.6,1.7-2.9,3.6-3.9,5.9c-1,2.2-1.4,4.6-1.4,7.2c0,2.5,0.5,4.9,1.4,7.2c1,2.2,2.2,4.2,3.9,5.9c1.6,1.7,3.6,3,5.8,4
		c2.2,1,4.5,1.5,7,1.5c2.5,0,4.8-0.5,7-1.5c2.2-1,4.1-2.3,5.8-4c1.6-1.7,2.9-3.6,3.9-5.9c1-2.2,1.4-4.6,1.4-7.2
		c0-2.5-0.5-4.9-1.4-7.2c-1-2.2-2.2-4.2-3.9-5.9c-1.6-1.7-3.6-3-5.8-4C792.4,29.8,790,29.3,787.5,29.3z"/>
	<path class="st1" d="M833.1,60.4V45.9l5.2,2.1c1.2,0.4,2.3,0.6,3.4,0.6c1.3,0,2.5-0.2,3.6-0.7c1.1-0.5,2.1-1.2,3-2.1
		c0.9-0.9,1.5-1.9,2-3.1c0.5-1.2,0.7-2.4,0.7-3.8c0-1.3-0.2-2.5-0.7-3.7c-0.5-1.2-1.2-2.2-2-3.1c-0.9-0.9-1.9-1.6-3-2.1
		c-1.1-0.5-2.3-0.7-3.6-0.7c-1.9,0-3.5,0.5-5.1,1.5c-1.5,1-2.7,2.3-3.5,4l-6.8-3.3c0.7-1.5,1.5-2.9,2.6-4.1c1-1.2,2.2-2.2,3.6-3.1
		c2.9-1.9,6-2.8,9.2-2.8c2.3,0,4.4,0.4,6.5,1.3c2,0.9,3.9,2.1,5.5,3.8c1.6,1.6,2.8,3.5,3.7,5.6c0.9,2.1,1.3,4.3,1.3,6.6
		s-0.4,4.5-1.3,6.7c-0.9,2.1-2.1,4-3.7,5.6c-1.6,1.6-3.4,2.9-5.5,3.8c-2,0.9-4.2,1.3-6.5,1.3c-0.5,0-0.8,0-1-0.1v4.1H833.1z
		 M842.5,68.3c0,1.6-0.5,2.9-1.6,4c-1.1,1.1-2.4,1.6-4,1.6c-1.5,0-2.8-0.5-3.9-1.6c-1.1-1.1-1.6-2.4-1.6-4c0-1.6,0.5-2.9,1.6-4
		c1.1-1.1,2.4-1.6,3.9-1.6c1.6,0,2.9,0.5,4,1.6C842,65.3,842.5,66.7,842.5,68.3z"/>
</g>
</svg>
